<svg xmlns="http://www.w3.org/2000/svg" xmlns:xlink="http://www.w3.org/1999/xlink" width="50" zoomAndPan="magnify" viewBox="0 0 37.5 37.499999" height="50" preserveAspectRatio="xMidYMid meet" version="1.0"><defs><g/><clipPath id="078384b13c"><path d="M 5 5 L 32 5 L 32 33 L 5 33 Z M 5 5 " clip-rule="nonzero"/></clipPath><clipPath id="2779330717"><path d="M 18.839844 0.195312 L 33.359375 15.367188 L 13.851562 34.035156 L -0.667969 18.863281 Z M 18.839844 0.195312 " clip-rule="nonzero"/></clipPath><clipPath id="58d240fc19"><path d="M 18.839844 0.195312 L 37.507812 19.703125 L 18 38.371094 L -0.667969 18.863281 Z M 18.839844 0.195312 " clip-rule="nonzero"/></clipPath></defs><g clip-path="url(#078384b13c)"><g clip-path="url(#2779330717)"><g clip-path="url(#58d240fc19)"><path fill="#fe84eb" d="M 24.574219 30.921875 C 23.496094 31.480469 22.335938 31.867188 21.152344 32.101562 C 20.183594 32.289062 19.199219 32.386719 18.214844 32.382812 C 18.082031 32.386719 17.953125 32.375 17.820312 32.371094 C 17.691406 32.363281 17.558594 32.359375 17.429688 32.347656 L 17.039062 32.3125 L 16.84375 32.296875 L 16.257812 32.214844 C 16.128906 32.195312 16 32.171875 15.871094 32.148438 C 15.609375 32.109375 15.355469 32.046875 15.101562 31.992188 C 15.0625 31.980469 15.023438 31.972656 14.984375 31.964844 C 14.945312 31.953125 14.902344 31.941406 14.859375 31.929688 C 14.773438 31.90625 14.679688 31.882812 14.582031 31.855469 C 14.382812 31.804688 14.167969 31.726562 13.929688 31.648438 C 13.871094 31.628906 13.808594 31.609375 13.75 31.585938 C 13.6875 31.5625 13.625 31.539062 13.5625 31.515625 C 13.4375 31.464844 13.304688 31.414062 13.171875 31.359375 C 12.910156 31.238281 12.621094 31.121094 12.339844 30.96875 C 11.183594 30.398438 9.945312 29.492188 8.890625 28.402344 C 7.847656 27.300781 6.996094 26.019531 6.476562 24.84375 C 6.335938 24.554688 6.234375 24.261719 6.125 23.996094 C 6.078125 23.855469 6.03125 23.722656 5.988281 23.597656 C 5.964844 23.53125 5.941406 23.46875 5.921875 23.40625 C 5.902344 23.34375 5.886719 23.28125 5.867188 23.222656 C 5.800781 22.980469 5.730469 22.761719 5.691406 22.5625 C 5.667969 22.460938 5.648438 22.367188 5.628906 22.28125 C 5.617188 22.238281 5.609375 22.195312 5.597656 22.15625 C 5.59375 22.117188 5.585938 22.078125 5.578125 22.039062 C 5.398438 21.070312 5.308594 20.085938 5.320312 19.101562 C 5.339844 18.054688 5.492188 17.011719 5.734375 15.988281 C 6.019531 14.816406 6.457031 13.675781 7.0625 12.621094 C 7.65625 11.558594 8.421875 10.597656 9.296875 9.746094 C 10.183594 8.914062 11.179688 8.1875 12.265625 7.644531 C 13.34375 7.085938 14.503906 6.699219 15.6875 6.464844 C 16.65625 6.277344 17.640625 6.179688 18.625 6.183594 C 18.757812 6.179688 18.886719 6.191406 19.019531 6.195312 C 19.148438 6.203125 19.28125 6.207031 19.410156 6.214844 L 19.800781 6.253906 L 20 6.269531 L 20.191406 6.296875 L 20.582031 6.347656 C 20.710938 6.371094 20.839844 6.394531 20.96875 6.417969 C 21.230469 6.457031 21.484375 6.519531 21.738281 6.574219 C 21.777344 6.582031 21.816406 6.59375 21.855469 6.601562 C 21.894531 6.613281 21.9375 6.625 21.980469 6.636719 C 22.066406 6.660156 22.160156 6.683594 22.257812 6.710938 C 22.457031 6.761719 22.671875 6.839844 22.910156 6.917969 C 22.96875 6.9375 23.03125 6.957031 23.089844 6.980469 C 23.152344 7.003906 23.214844 7.027344 23.277344 7.050781 C 23.402344 7.101562 23.535156 7.152344 23.667969 7.207031 C 23.929688 7.328125 24.21875 7.445312 24.5 7.597656 C 25.65625 8.167969 26.894531 9.074219 27.949219 10.164062 C 28.992188 11.265625 29.84375 12.542969 30.363281 13.722656 C 30.503906 14.011719 30.605469 14.304688 30.714844 14.570312 C 30.765625 14.707031 30.808594 14.839844 30.851562 14.96875 C 30.875 15.035156 30.898438 15.097656 30.917969 15.160156 C 30.9375 15.21875 30.953125 15.28125 30.972656 15.34375 C 31.039062 15.585938 31.109375 15.804688 31.148438 16.003906 C 31.171875 16.101562 31.191406 16.195312 31.210938 16.285156 C 31.222656 16.328125 31.230469 16.371094 31.242188 16.410156 C 31.25 16.449219 31.253906 16.488281 31.261719 16.527344 C 31.441406 17.496094 31.53125 18.480469 31.519531 19.464844 C 31.5 20.511719 31.347656 21.554688 31.105469 22.578125 C 30.820312 23.75 30.382812 24.890625 29.777344 25.945312 C 29.183594 27.003906 28.417969 27.96875 27.542969 28.816406 C 26.65625 29.652344 25.660156 30.375 24.574219 30.921875 Z M 27.757812 29.03125 L 27.761719 29.03125 C 28.652344 28.160156 29.4375 27.179688 30.042969 26.097656 C 30.664062 25.019531 31.109375 23.851562 31.402344 22.652344 L 31.527344 22.089844 C 31.527344 22.089844 31.554688 21.933594 31.601562 21.699219 C 31.652344 21.464844 31.6875 21.148438 31.734375 20.835938 C 31.757812 20.515625 31.796875 20.203125 31.800781 19.964844 C 31.8125 19.726562 31.820312 19.566406 31.820312 19.566406 C 31.820312 19.566406 31.820312 19.527344 31.820312 19.457031 C 31.820312 19.386719 31.820312 19.289062 31.820312 19.167969 C 31.828125 18.929688 31.808594 18.613281 31.796875 18.296875 C 31.785156 18.136719 31.769531 17.980469 31.757812 17.832031 C 31.75 17.757812 31.742188 17.683594 31.738281 17.617188 C 31.726562 17.546875 31.71875 17.484375 31.710938 17.425781 C 31.679688 17.191406 31.65625 17.03125 31.65625 17.03125 C 31.65625 17.03125 31.652344 16.996094 31.644531 16.941406 C 31.632812 16.890625 31.621094 16.820312 31.609375 16.746094 C 31.582031 16.605469 31.558594 16.464844 31.558594 16.464844 C 31.550781 16.425781 31.546875 16.386719 31.539062 16.34375 C 31.527344 16.300781 31.519531 16.257812 31.507812 16.214844 C 31.488281 16.125 31.46875 16.03125 31.445312 15.929688 C 31.402344 15.722656 31.335938 15.5 31.265625 15.25 C 31.246094 15.191406 31.230469 15.125 31.210938 15.0625 C 31.1875 15 31.167969 14.933594 31.144531 14.871094 C 31.097656 14.738281 31.050781 14.601562 31.003906 14.460938 C 30.890625 14.1875 30.785156 13.890625 30.644531 13.59375 C 30.109375 12.386719 29.242188 11.074219 28.175781 9.949219 C 27.097656 8.832031 25.824219 7.90625 24.644531 7.324219 C 24.351562 7.167969 24.058594 7.046875 23.792969 6.921875 C 23.652344 6.867188 23.519531 6.816406 23.390625 6.765625 C 23.324219 6.742188 23.261719 6.714844 23.199219 6.691406 C 23.136719 6.667969 23.074219 6.648438 23.015625 6.628906 C 22.769531 6.546875 22.546875 6.46875 22.34375 6.417969 C 22.246094 6.390625 22.148438 6.367188 22.0625 6.339844 C 22.019531 6.328125 21.976562 6.316406 21.933594 6.308594 C 21.894531 6.296875 21.855469 6.289062 21.816406 6.28125 C 21.816406 6.28125 21.675781 6.25 21.535156 6.21875 C 21.464844 6.203125 21.394531 6.1875 21.339844 6.175781 C 21.289062 6.164062 21.253906 6.160156 21.253906 6.160156 C 21.253906 6.160156 21.097656 6.128906 20.859375 6.085938 C 20.800781 6.074219 20.738281 6.0625 20.671875 6.050781 C 20.605469 6.042969 20.53125 6.03125 20.460938 6.023438 C 20.3125 6.003906 20.152344 5.980469 19.996094 5.960938 C 19.679688 5.933594 19.363281 5.902344 19.125 5.898438 C 19.003906 5.894531 18.90625 5.890625 18.835938 5.886719 C 18.769531 5.882812 18.726562 5.882812 18.726562 5.882812 C 18.726562 5.882812 18.570312 5.882812 18.332031 5.882812 C 18.09375 5.878906 17.773438 5.902344 17.457031 5.914062 C 17.140625 5.945312 16.824219 5.96875 16.585938 6.007812 C 16.351562 6.042969 16.195312 6.066406 16.195312 6.066406 L 15.625 6.167969 C 14.414062 6.402344 13.226562 6.800781 12.125 7.371094 C 11.015625 7.929688 10 8.667969 9.09375 9.523438 L 9.085938 9.527344 L 9.082031 9.535156 L 9.078125 9.535156 C 8.1875 10.40625 7.402344 11.386719 6.796875 12.46875 C 6.175781 13.546875 5.730469 14.714844 5.4375 15.914062 L 5.3125 16.476562 C 5.3125 16.476562 5.285156 16.632812 5.238281 16.867188 C 5.1875 17.101562 5.152344 17.417969 5.105469 17.730469 C 5.082031 18.046875 5.042969 18.363281 5.039062 18.601562 C 5.027344 18.839844 5.019531 19 5.019531 19 C 5.019531 19 5.019531 19.039062 5.019531 19.109375 C 5.019531 19.179688 5.019531 19.277344 5.019531 19.398438 C 5.011719 19.636719 5.03125 19.953125 5.042969 20.269531 C 5.054688 20.429688 5.070312 20.585938 5.082031 20.734375 C 5.089844 20.808594 5.097656 20.882812 5.101562 20.949219 C 5.113281 21.015625 5.121094 21.082031 5.128906 21.140625 C 5.160156 21.375 5.183594 21.535156 5.183594 21.535156 C 5.183594 21.535156 5.1875 21.570312 5.195312 21.621094 C 5.207031 21.675781 5.21875 21.746094 5.230469 21.816406 C 5.257812 21.960938 5.28125 22.101562 5.28125 22.101562 C 5.289062 22.140625 5.292969 22.179688 5.300781 22.222656 C 5.3125 22.261719 5.320312 22.304688 5.332031 22.351562 C 5.351562 22.441406 5.371094 22.535156 5.394531 22.636719 C 5.4375 22.84375 5.503906 23.066406 5.574219 23.3125 C 5.59375 23.375 5.609375 23.441406 5.628906 23.503906 C 5.652344 23.566406 5.671875 23.628906 5.695312 23.695312 C 5.742188 23.828125 5.789062 23.964844 5.835938 24.105469 C 5.949219 24.378906 6.054688 24.675781 6.195312 24.972656 C 6.730469 26.179688 7.597656 27.492188 8.664062 28.617188 C 9.742188 29.734375 11.015625 30.660156 12.195312 31.242188 C 12.488281 31.398438 12.78125 31.519531 13.046875 31.644531 C 13.1875 31.695312 13.320312 31.75 13.449219 31.800781 C 13.515625 31.824219 13.578125 31.851562 13.640625 31.875 C 13.703125 31.898438 13.765625 31.917969 13.828125 31.9375 C 14.070312 32.019531 14.292969 32.097656 14.496094 32.148438 C 14.59375 32.175781 14.691406 32.199219 14.777344 32.226562 C 14.820312 32.238281 14.863281 32.25 14.90625 32.257812 C 14.945312 32.269531 14.984375 32.277344 15.023438 32.285156 C 15.023438 32.285156 15.164062 32.316406 15.304688 32.347656 C 15.375 32.363281 15.445312 32.378906 15.5 32.390625 C 15.550781 32.402344 15.585938 32.40625 15.585938 32.40625 C 15.585938 32.40625 15.746094 32.4375 15.980469 32.480469 C 16.039062 32.488281 16.101562 32.5 16.167969 32.515625 C 16.234375 32.523438 16.308594 32.53125 16.378906 32.542969 C 16.527344 32.5625 16.6875 32.585938 16.84375 32.605469 C 17.160156 32.628906 17.476562 32.664062 17.714844 32.667969 C 17.835938 32.671875 17.933594 32.675781 18.003906 32.679688 C 18.074219 32.679688 18.113281 32.679688 18.113281 32.679688 C 18.113281 32.679688 18.269531 32.679688 18.507812 32.683594 C 18.746094 32.6875 19.066406 32.664062 19.382812 32.652344 C 19.699219 32.617188 20.015625 32.597656 20.253906 32.558594 C 20.488281 32.523438 20.644531 32.5 20.644531 32.5 L 21.214844 32.398438 C 22.425781 32.164062 23.613281 31.765625 24.714844 31.195312 C 25.824219 30.636719 26.839844 29.894531 27.746094 29.042969 L 27.757812 29.03125 " fill-opacity="1" fill-rule="nonzero"/></g></g></g><g fill="#fe84eb" fill-opacity="1"><g transform="translate(16.308098, 31.761209)"><g><path d="M 1.082031 -1.238281 L 1.015625 -0.777344 L 0.695312 -0.824219 L 0.761719 -1.285156 L 0.300781 -1.351562 L 0.105469 0.015625 L 0.566406 0.0820312 L 0.636719 -0.402344 L 0.957031 -0.359375 L 0.886719 0.125 L 1.347656 0.191406 L 1.542969 -1.175781 Z M 1.082031 -1.238281 "/></g></g></g><g fill="#fe84eb" fill-opacity="1"><g transform="translate(18.610472, 32.009347)"><g><path d="M 1.035156 -0.0507812 L 1.542969 -0.078125 L 0.921875 -1.425781 L 0.460938 -1.402344 L -0.0195312 0 L 0.472656 -0.0234375 L 0.527344 -0.21875 L 0.964844 -0.238281 Z M 0.863281 -0.554688 L 0.59375 -0.542969 L 0.710938 -0.925781 Z M 0.863281 -0.554688 "/></g></g></g><g fill="#fe84eb" fill-opacity="1"><g transform="translate(20.970691, 31.806123)"><g><path d="M 0.8125 -0.195312 L 1.3125 -0.316406 L 0.964844 -0.726562 C 1.0625 -0.839844 1.101562 -0.980469 1.0625 -1.136719 C 0.988281 -1.441406 0.722656 -1.59375 0.410156 -1.515625 L -0.21875 -1.367188 L 0.105469 -0.0234375 L 0.550781 -0.132812 L 0.460938 -0.496094 L 0.550781 -0.519531 Z M 0.320312 -1.09375 L 0.429688 -1.117188 C 0.519531 -1.140625 0.582031 -1.097656 0.601562 -1.027344 C 0.617188 -0.953125 0.578125 -0.886719 0.488281 -0.863281 L 0.378906 -0.835938 Z M 0.320312 -1.09375 "/></g></g></g><g fill="#fe84eb" fill-opacity="1"><g transform="translate(23.100686, 31.219235)"><g><path d="M 0.683594 -0.261719 C 1.03125 -0.417969 1.171875 -0.734375 1.027344 -1.0625 L 0.6875 -1.816406 L 0.253906 -1.625 L 0.589844 -0.867188 C 0.632812 -0.777344 0.601562 -0.6875 0.511719 -0.648438 C 0.421875 -0.605469 0.335938 -0.644531 0.296875 -0.734375 L -0.0429688 -1.492188 L -0.476562 -1.296875 L -0.140625 -0.542969 C 0.0078125 -0.214844 0.335938 -0.105469 0.683594 -0.261719 Z M 0.683594 -0.261719 "/></g></g></g><g fill="#fe84eb" fill-opacity="1"><g transform="translate(25.171269, 30.205596)"><g><path d="M 1.160156 -0.800781 L 0.382812 -1.113281 L 0.355469 -1.921875 L -0.0859375 -1.617188 L -0.03125 -1.042969 L -0.316406 -1.457031 L -0.695312 -1.195312 L 0.0898438 -0.0625 L 0.464844 -0.320312 L 0.167969 -0.75 L 0.71875 -0.496094 Z M 1.160156 -0.800781 "/></g></g></g><g fill="#fe84eb" fill-opacity="1"><g transform="translate(26.955609, 28.887613)"><g><path d="M 0.726562 -0.734375 L 1.085938 -1.097656 L -0.285156 -1.675781 L -0.609375 -1.347656 L -0.015625 0.015625 L 0.335938 -0.335938 L 0.242188 -0.515625 L 0.550781 -0.828125 Z M 0.261719 -0.992188 L 0.0742188 -0.800781 L -0.101562 -1.164062 Z M 0.261719 -0.992188 "/></g></g></g><g fill="#fe84eb" fill-opacity="1"><g transform="translate(28.537929, 27.14392)"><g/></g></g><g fill="#fe84eb" fill-opacity="1"><g transform="translate(29.231061, 26.153174)"><g><path d="M -0.34375 -1.386719 L -0.699219 -1.585938 L -1.152344 -0.765625 L 0.0507812 -0.09375 L 0.277344 -0.5 L -0.109375 -0.714844 L 0.0976562 -1.085938 L -0.242188 -1.273438 L -0.445312 -0.902344 L -0.574219 -0.976562 Z M -0.34375 -1.386719 "/></g></g></g><g fill="#fe84eb" fill-opacity="1"><g transform="translate(30.126753, 24.420735)"><g><path d="M 0.277344 -0.679688 C 0.402344 -1.039062 0.265625 -1.355469 -0.0742188 -1.476562 L -0.855469 -1.746094 L -1.011719 -1.296875 L -0.226562 -1.023438 C -0.132812 -0.992188 -0.0898438 -0.910156 -0.121094 -0.816406 C -0.152344 -0.722656 -0.238281 -0.6875 -0.332031 -0.71875 L -1.117188 -0.988281 L -1.273438 -0.539062 L -0.492188 -0.269531 C -0.152344 -0.152344 0.152344 -0.316406 0.277344 -0.679688 Z M 0.277344 -0.679688 "/></g></g></g><g fill="#fe84eb" fill-opacity="1"><g transform="translate(30.801105, 22.218273)"><g><path d="M 0.128906 -0.574219 C 0.179688 -0.910156 0.0117188 -1.171875 -0.289062 -1.21875 L -1.183594 -1.359375 L -1.257812 -0.894531 L -0.382812 -0.757812 C -0.316406 -0.75 -0.277344 -0.699219 -0.289062 -0.640625 C -0.296875 -0.582031 -0.347656 -0.542969 -0.414062 -0.554688 L -0.445312 -0.558594 L -0.519531 -0.09375 L -0.464844 -0.0859375 C -0.164062 -0.0390625 0.078125 -0.238281 0.128906 -0.574219 Z M 0.128906 -0.574219 "/></g></g></g><g fill="#fe84eb" fill-opacity="1"><g transform="translate(31.041001, 20.14616)"><g><path d="M 0 -0.109375 L 0.00390625 -0.578125 L -1.375 -0.589844 L -1.378906 -0.117188 Z M 0 -0.109375 "/></g></g></g><g fill="#fe84eb" fill-opacity="1"><g transform="translate(31.002005, 18.636492)"><g><path d="M -0.0117188 -0.109375 L -0.0664062 -0.574219 L -1.4375 -0.414062 L -1.382812 0.0507812 Z M -0.0117188 -0.109375 "/></g></g></g><g fill="#7a62f7" fill-opacity="1"><g transform="translate(7.885618, 24.599997)"><g><path d="M 8.667969 -12.257812 L 8.667969 -7.53125 L 4.046875 -7.53125 L 4.046875 -12.257812 L 1.402344 -12.257812 L 1.402344 0 L 4.046875 0 L 4.046875 -5.0625 L 8.667969 -5.0625 L 8.667969 0 L 11.3125 0 L 11.3125 -12.257812 Z M 8.667969 -12.257812 "/></g></g></g><g fill="#7a62f7" fill-opacity="1"><g transform="translate(19.580377, 24.599997)"><g><path d="M 8.722656 -9.789062 L 8.722656 -12.257812 L 1.402344 -12.257812 L 1.402344 0 L 4.046875 0 L 4.046875 -4.691406 L 8.265625 -4.691406 L 8.265625 -7.09375 L 4.046875 -7.09375 L 4.046875 -9.789062 Z M 8.722656 -9.789062 "/></g></g></g></svg>