<svg xmlns="http://www.w3.org/2000/svg" xmlns:xlink="http://www.w3.org/1999/xlink" width="56" zoomAndPan="magnify" viewBox="0 0 42 42" height="56" preserveAspectRatio="xMidYMid meet" version="1.0"><defs><g/><clipPath id="eb47610f27"><path d="M 3.40625 2.652344 L 38.59375 2.652344 L 38.59375 38.390625 L 3.40625 38.390625 Z M 3.40625 2.652344 " clip-rule="nonzero"/></clipPath><clipPath id="71cb54af89"><path d="M 21 2.652344 C 11.28125 2.652344 3.40625 10.648438 3.40625 20.511719 C 3.40625 30.375 11.28125 38.371094 21 38.371094 C 30.71875 38.371094 38.59375 30.375 38.59375 20.511719 C 38.59375 10.648438 30.71875 2.652344 21 2.652344 " clip-rule="nonzero"/></clipPath></defs><g clip-path="url(#eb47610f27)"><g clip-path="url(#71cb54af89)"><path fill="#411557" d="M 3.40625 2.652344 L 38.59375 2.652344 L 38.59375 38.390625 L 3.40625 38.390625 Z M 3.40625 2.652344 " fill-opacity="1" fill-rule="nonzero"/></g></g><g fill="#93feb6" fill-opacity="1"><g transform="translate(7.725005, 28.062038)"><g><path d="M 9.230469 -14.199219 L 9.230469 -9.390625 L 5.902344 -9.390625 L 5.902344 -14.199219 L 1.117188 -14.199219 L 1.117188 0 L 5.902344 0 L 5.902344 -5.03125 L 9.230469 -5.03125 L 9.230469 0 L 14.015625 0 L 14.015625 -14.199219 Z M 9.230469 -14.199219 "/></g></g></g><g fill="#93feb6" fill-opacity="1"><g transform="translate(22.856123, 28.062038)"><g><path d="M 10.769531 -10.039062 L 10.769531 -14.199219 L 1.117188 -14.199219 L 1.117188 0 L 5.902344 0 L 5.902344 -4.542969 L 10.242188 -4.542969 L 10.242188 -8.539062 L 5.902344 -8.539062 L 5.902344 -10.039062 Z M 10.769531 -10.039062 "/></g></g></g></svg>