<svg xmlns="http://www.w3.org/2000/svg" xmlns:xlink="http://www.w3.org/1999/xlink" width="60" zoomAndPan="magnify" viewBox="0 0 45 44.999999" height="60" preserveAspectRatio="xMidYMid meet" version="1.0"><defs><g/><clipPath id="d09d38cf1f"><path d="M 6 7 L 39 7 L 39 40 L 6 40 Z M 6 7 " clip-rule="nonzero"/></clipPath><clipPath id="cd8e1c0d17"><path d="M 22.609375 0.234375 L 40.242188 18.660156 L 16.9375 40.953125 L -0.691406 22.53125 Z M 22.609375 0.234375 " clip-rule="nonzero"/></clipPath><clipPath id="cef6e5eb96"><path d="M 22.609375 0.234375 L 44.90625 23.535156 L 21.605469 45.832031 L -0.691406 22.53125 Z M 22.609375 0.234375 " clip-rule="nonzero"/></clipPath><clipPath id="bba9a5c86d"><path d="M 30.398438 28.386719 L 31.980469 28.386719 L 31.980469 29.972656 L 30.398438 29.972656 Z M 30.398438 28.386719 " clip-rule="nonzero"/></clipPath><clipPath id="b59179c6bb"><path d="M 31.191406 28.386719 C 30.753906 28.386719 30.398438 28.742188 30.398438 29.179688 C 30.398438 29.617188 30.753906 29.972656 31.191406 29.972656 C 31.628906 29.972656 31.980469 29.617188 31.980469 29.179688 C 31.980469 28.742188 31.628906 28.386719 31.191406 28.386719 " clip-rule="nonzero"/></clipPath></defs><g clip-path="url(#d09d38cf1f)"><g clip-path="url(#cd8e1c0d17)"><g clip-path="url(#cef6e5eb96)"><path fill="#fe84eb" d="M 29.460938 36.9375 C 28.171875 37.601562 26.785156 38.066406 25.371094 38.34375 C 24.214844 38.566406 23.039062 38.6875 21.863281 38.679688 C 21.707031 38.683594 21.550781 38.671875 21.394531 38.664062 C 21.238281 38.65625 21.082031 38.652344 20.925781 38.640625 L 20.457031 38.597656 L 20.222656 38.574219 L 19.992188 38.542969 L 19.527344 38.480469 C 19.371094 38.457031 19.21875 38.425781 19.0625 38.402344 C 18.753906 38.351562 18.449219 38.277344 18.144531 38.210938 C 18.097656 38.203125 18.054688 38.191406 18.003906 38.179688 C 17.957031 38.167969 17.90625 38.15625 17.855469 38.140625 C 17.753906 38.113281 17.644531 38.082031 17.523438 38.050781 C 17.289062 37.988281 17.03125 37.898438 16.746094 37.804688 C 16.675781 37.78125 16.601562 37.757812 16.527344 37.730469 C 16.457031 37.703125 16.382812 37.671875 16.308594 37.644531 C 16.15625 37.582031 16 37.523438 15.839844 37.457031 C 15.523438 37.3125 15.183594 37.175781 14.84375 36.992188 C 13.464844 36.308594 11.984375 35.226562 10.726562 33.925781 C 9.480469 32.609375 8.464844 31.082031 7.84375 29.675781 C 7.675781 29.328125 7.550781 28.980469 7.421875 28.660156 C 7.363281 28.496094 7.308594 28.339844 7.257812 28.183594 C 7.230469 28.109375 7.207031 28.035156 7.179688 27.960938 C 7.15625 27.886719 7.136719 27.8125 7.117188 27.738281 C 7.035156 27.453125 6.953125 27.191406 6.90625 26.949219 C 6.878906 26.832031 6.851562 26.71875 6.828125 26.617188 C 6.816406 26.5625 6.804688 26.511719 6.792969 26.464844 C 6.785156 26.417969 6.777344 26.371094 6.769531 26.324219 C 6.554688 25.167969 6.445312 23.996094 6.460938 22.816406 C 6.484375 21.566406 6.667969 20.320312 6.953125 19.097656 C 7.296875 17.699219 7.820312 16.332031 8.542969 15.074219 C 9.25 13.808594 10.167969 12.660156 11.210938 11.644531 C 12.273438 10.648438 13.460938 9.78125 14.757812 9.132812 C 16.046875 8.464844 17.429688 8.003906 18.84375 7.722656 C 20.003906 7.5 21.175781 7.382812 22.355469 7.386719 C 22.511719 7.382812 22.667969 7.398438 22.824219 7.402344 C 22.980469 7.410156 23.136719 7.414062 23.292969 7.425781 L 23.757812 7.46875 L 23.992188 7.492188 L 24.226562 7.523438 L 24.691406 7.585938 C 24.847656 7.609375 25 7.640625 25.152344 7.667969 C 25.464844 7.714844 25.765625 7.789062 26.074219 7.855469 C 26.117188 7.863281 26.164062 7.875 26.210938 7.886719 C 26.257812 7.898438 26.308594 7.910156 26.359375 7.925781 C 26.464844 7.953125 26.574219 7.984375 26.691406 8.015625 C 26.929688 8.078125 27.1875 8.167969 27.472656 8.261719 C 27.542969 8.289062 27.613281 8.308594 27.6875 8.335938 C 27.761719 8.367188 27.835938 8.394531 27.910156 8.425781 C 28.058594 8.484375 28.214844 8.542969 28.378906 8.609375 C 28.691406 8.753906 29.03125 8.890625 29.371094 9.074219 C 30.75 9.757812 32.234375 10.839844 33.492188 12.140625 C 34.738281 13.457031 35.75 14.984375 36.371094 16.394531 C 36.542969 16.738281 36.664062 17.085938 36.796875 17.40625 C 36.851562 17.570312 36.90625 17.726562 36.960938 17.882812 C 36.984375 17.957031 37.011719 18.035156 37.035156 18.105469 C 37.0625 18.179688 37.078125 18.253906 37.101562 18.328125 C 37.183594 18.617188 37.261719 18.878906 37.3125 19.117188 C 37.339844 19.234375 37.363281 19.347656 37.386719 19.453125 C 37.398438 19.503906 37.410156 19.554688 37.421875 19.601562 C 37.429688 19.648438 37.4375 19.695312 37.445312 19.742188 C 37.660156 20.898438 37.769531 22.074219 37.757812 23.25 C 37.730469 24.5 37.550781 25.746094 37.261719 26.96875 C 36.917969 28.367188 36.394531 29.734375 35.671875 30.992188 C 34.964844 32.257812 34.050781 33.40625 33.003906 34.421875 C 31.945312 35.417969 30.757812 36.285156 29.460938 36.9375 Z M 33.265625 34.675781 C 34.328125 33.636719 35.265625 32.464844 35.992188 31.171875 C 36.730469 29.886719 37.265625 28.492188 37.613281 27.058594 L 37.765625 26.386719 C 37.765625 26.386719 37.800781 26.199219 37.851562 25.917969 C 37.914062 25.640625 37.953125 25.261719 38.011719 24.886719 C 38.042969 24.507812 38.085938 24.128906 38.09375 23.84375 C 38.105469 23.5625 38.113281 23.371094 38.113281 23.371094 C 38.113281 23.371094 38.113281 23.324219 38.113281 23.242188 C 38.113281 23.15625 38.117188 23.039062 38.117188 22.898438 C 38.125 22.613281 38.101562 22.234375 38.085938 21.855469 C 38.074219 21.664062 38.054688 21.476562 38.039062 21.296875 C 38.03125 21.210938 38.023438 21.125 38.015625 21.042969 C 38.003906 20.960938 37.992188 20.886719 37.984375 20.816406 C 37.945312 20.53125 37.917969 20.34375 37.917969 20.34375 C 37.917969 20.34375 37.914062 20.300781 37.902344 20.238281 C 37.890625 20.175781 37.875 20.089844 37.863281 20.003906 C 37.832031 19.835938 37.800781 19.664062 37.800781 19.664062 C 37.792969 19.621094 37.785156 19.574219 37.777344 19.523438 C 37.765625 19.472656 37.753906 19.421875 37.742188 19.367188 C 37.71875 19.261719 37.691406 19.148438 37.664062 19.027344 C 37.617188 18.78125 37.535156 18.511719 37.449219 18.21875 C 37.429688 18.144531 37.410156 18.070312 37.386719 17.992188 C 37.359375 17.917969 37.332031 17.839844 37.308594 17.761719 C 37.253906 17.605469 37.199219 17.441406 37.140625 17.273438 C 37.003906 16.945312 36.878906 16.589844 36.707031 16.238281 C 36.074219 14.796875 35.035156 13.230469 33.757812 11.886719 C 32.472656 10.550781 30.953125 9.445312 29.542969 8.746094 C 29.195312 8.558594 28.84375 8.417969 28.523438 8.269531 C 28.359375 8.207031 28.199219 8.144531 28.042969 8.082031 C 27.96875 8.050781 27.890625 8.023438 27.816406 7.992188 C 27.742188 7.964844 27.667969 7.941406 27.59375 7.917969 C 27.304688 7.820312 27.039062 7.726562 26.796875 7.667969 C 26.675781 7.632812 26.5625 7.605469 26.457031 7.574219 C 26.40625 7.5625 26.355469 7.546875 26.304688 7.535156 C 26.257812 7.523438 26.210938 7.511719 26.164062 7.503906 C 26.164062 7.503906 25.996094 7.464844 25.828125 7.429688 C 25.742188 7.410156 25.660156 7.390625 25.597656 7.378906 C 25.535156 7.363281 25.492188 7.359375 25.492188 7.359375 C 25.492188 7.359375 25.304688 7.324219 25.023438 7.273438 C 24.953125 7.257812 24.878906 7.246094 24.796875 7.230469 C 24.71875 7.21875 24.632812 7.207031 24.542969 7.195312 C 24.367188 7.171875 24.179688 7.144531 23.992188 7.121094 C 23.613281 7.089844 23.234375 7.050781 22.949219 7.046875 C 22.808594 7.042969 22.6875 7.035156 22.605469 7.035156 C 22.523438 7.03125 22.476562 7.03125 22.476562 7.03125 C 22.476562 7.03125 22.285156 7.027344 22 7.027344 C 21.714844 7.019531 21.335938 7.050781 20.957031 7.066406 C 20.582031 7.105469 20.199219 7.128906 19.917969 7.175781 C 19.636719 7.21875 19.449219 7.246094 19.449219 7.246094 L 18.769531 7.367188 C 17.324219 7.648438 15.90625 8.121094 14.589844 8.804688 C 13.265625 9.472656 12.050781 10.355469 10.96875 11.375 L 10.953125 11.390625 C 9.886719 12.429688 8.949219 13.601562 8.226562 14.894531 C 7.484375 16.179688 6.949219 17.574219 6.605469 19.007812 L 6.453125 19.679688 C 6.453125 19.679688 6.417969 19.867188 6.363281 20.148438 C 6.304688 20.425781 6.261719 20.804688 6.207031 21.179688 C 6.175781 21.558594 6.128906 21.9375 6.125 22.222656 C 6.113281 22.503906 6.105469 22.695312 6.105469 22.695312 C 6.105469 22.695312 6.101562 22.742188 6.101562 22.824219 C 6.101562 22.910156 6.101562 23.027344 6.101562 23.167969 C 6.089844 23.453125 6.113281 23.832031 6.128906 24.214844 C 6.144531 24.402344 6.164062 24.589844 6.179688 24.769531 C 6.1875 24.855469 6.195312 24.941406 6.203125 25.023438 C 6.210938 25.105469 6.222656 25.179688 6.234375 25.25 C 6.273438 25.535156 6.296875 25.722656 6.296875 25.722656 C 6.296875 25.722656 6.300781 25.765625 6.3125 25.828125 C 6.324219 25.890625 6.339844 25.976562 6.355469 26.0625 C 6.386719 26.230469 6.414062 26.402344 6.414062 26.402344 C 6.421875 26.445312 6.429688 26.496094 6.4375 26.542969 C 6.449219 26.59375 6.460938 26.644531 6.472656 26.699219 C 6.496094 26.804688 6.523438 26.917969 6.550781 27.039062 C 6.601562 27.285156 6.683594 27.554688 6.765625 27.847656 C 6.789062 27.921875 6.808594 28 6.832031 28.074219 C 6.855469 28.148438 6.882812 28.226562 6.910156 28.304688 C 6.964844 28.460938 7.019531 28.625 7.078125 28.792969 C 7.210938 29.121094 7.335938 29.476562 7.507812 29.828125 C 8.144531 31.269531 9.179688 32.835938 10.457031 34.179688 C 11.746094 35.515625 13.261719 36.621094 14.675781 37.320312 C 15.023438 37.507812 15.371094 37.648438 15.691406 37.796875 C 15.859375 37.863281 16.015625 37.925781 16.171875 37.984375 C 16.25 38.015625 16.324219 38.042969 16.398438 38.074219 C 16.472656 38.101562 16.550781 38.125 16.621094 38.148438 C 16.914062 38.246094 17.175781 38.339844 17.417969 38.398438 C 17.539062 38.433594 17.652344 38.460938 17.757812 38.492188 C 17.8125 38.503906 17.863281 38.519531 17.910156 38.53125 C 17.960938 38.542969 18.007812 38.554688 18.050781 38.5625 C 18.050781 38.5625 18.21875 38.601562 18.386719 38.636719 C 18.472656 38.65625 18.558594 38.675781 18.621094 38.6875 C 18.683594 38.703125 18.726562 38.710938 18.726562 38.710938 C 18.726562 38.710938 18.914062 38.742188 19.191406 38.796875 C 19.261719 38.808594 19.339844 38.820312 19.417969 38.835938 C 19.5 38.847656 19.585938 38.859375 19.671875 38.871094 C 19.847656 38.894531 20.035156 38.921875 20.226562 38.945312 C 20.605469 38.976562 20.980469 39.015625 21.265625 39.019531 C 21.410156 39.027344 21.527344 39.03125 21.609375 39.035156 C 21.691406 39.035156 21.742188 39.039062 21.742188 39.039062 C 21.742188 39.039062 21.929688 39.039062 22.214844 39.039062 C 22.5 39.046875 22.878906 39.015625 23.257812 39 C 23.636719 38.960938 24.015625 38.9375 24.296875 38.890625 C 24.578125 38.847656 24.765625 38.820312 24.765625 38.820312 L 25.445312 38.699219 C 26.894531 38.417969 28.308594 37.945312 29.625 37.261719 C 30.949219 36.59375 32.164062 35.710938 33.246094 34.691406 L 33.25 34.691406 L 33.265625 34.675781 " fill-opacity="1" fill-rule="nonzero"/></g></g></g><g fill="#fe84eb" fill-opacity="1"><g transform="translate(19.261556, 38.35384)"><g><path d="M 1.703125 0.25 L 1.28125 0.1875 L 1.375 -0.46875 L 0.6875 -0.578125 L 0.59375 0.078125 L 0.171875 0.03125 L 0.40625 -1.640625 L 0.828125 -1.59375 L 0.734375 -0.890625 L 1.421875 -0.78125 L 1.515625 -1.484375 L 1.9375 -1.421875 Z M 1.703125 0.25 "/></g></g></g><g fill="#fe84eb" fill-opacity="1"><g transform="translate(22.238979, 38.672395)"><g><path d="M 1.265625 -0.375 L 0.53125 -0.34375 L 0.421875 -0.015625 L -0.015625 0 L 0.640625 -1.71875 L 1.078125 -1.75 L 1.859375 -0.09375 L 1.40625 -0.078125 Z M 1.125 -0.703125 L 0.859375 -1.3125 L 0.640625 -0.671875 Z M 1.125 -0.703125 "/></g></g></g><g fill="#fe84eb" fill-opacity="1"><g transform="translate(25.17941, 38.413903)"><g><path d="M 1.15625 -0.28125 L 0.796875 -0.671875 L 0.78125 -0.671875 L 0.46875 -0.59375 L 0.578125 -0.140625 L 0.171875 -0.046875 L -0.234375 -1.6875 L 0.484375 -1.859375 C 0.703125 -1.910156 0.882812 -1.898438 1.03125 -1.828125 C 1.175781 -1.753906 1.269531 -1.628906 1.3125 -1.453125 C 1.375 -1.203125 1.316406 -1.003906 1.140625 -0.859375 L 1.625 -0.390625 Z M 0.390625 -0.9375 L 0.703125 -1.015625 C 0.796875 -1.035156 0.863281 -1.070312 0.90625 -1.125 C 0.945312 -1.175781 0.957031 -1.242188 0.9375 -1.328125 C 0.914062 -1.421875 0.875 -1.484375 0.8125 -1.515625 C 0.75 -1.546875 0.671875 -1.550781 0.578125 -1.53125 L 0.265625 -1.453125 Z M 0.390625 -0.9375 "/></g></g></g><g fill="#fe84eb" fill-opacity="1"><g transform="translate(27.914521, 37.644395)"><g><path d="M 0.828125 -2.234375 L 1.234375 -1.34375 C 1.328125 -1.144531 1.335938 -0.957031 1.265625 -0.78125 C 1.191406 -0.601562 1.050781 -0.460938 0.84375 -0.359375 C 0.625 -0.265625 0.421875 -0.25 0.234375 -0.3125 C 0.0546875 -0.375 -0.078125 -0.503906 -0.171875 -0.703125 L -0.578125 -1.59375 L -0.1875 -1.765625 L 0.21875 -0.875 C 0.269531 -0.769531 0.335938 -0.703125 0.421875 -0.671875 C 0.515625 -0.640625 0.609375 -0.644531 0.703125 -0.6875 C 0.796875 -0.738281 0.859375 -0.804688 0.890625 -0.890625 C 0.921875 -0.972656 0.910156 -1.066406 0.859375 -1.171875 L 0.453125 -2.0625 Z M 0.828125 -2.234375 "/></g></g></g><g fill="#fe84eb" fill-opacity="1"><g transform="translate(30.530689, 36.338278)"><g><path d="M 1.03125 -0.734375 L 0.296875 -1.015625 L 0.25 -0.671875 L 0.484375 -0.34375 L 0.140625 -0.09375 L -0.828125 -1.46875 L -0.484375 -1.71875 L -0.0625 -1.125 L 0.03125 -2.09375 L 0.453125 -2.375 L 0.34375 -1.4375 L 1.453125 -1.03125 Z M 1.03125 -0.734375 "/></g></g></g><g fill="#fe84eb" fill-opacity="1"><g transform="translate(32.834993, 34.579686)"><g><path d="M 0.671875 -1.140625 L 0.15625 -0.609375 L 0.296875 -0.296875 L -0.015625 0.015625 L -0.71875 -1.6875 L -0.421875 -2 L 1.28125 -1.34375 L 0.96875 -1.015625 Z M 0.328125 -1.265625 L -0.265625 -1.546875 L 0 -0.921875 Z M 0.328125 -1.265625 "/></g></g></g><g fill="#fe84eb" fill-opacity="1"><g transform="translate(34.75996, 32.386299)"><g/></g></g><g fill="#fe84eb" fill-opacity="1"><g transform="translate(35.661164, 31.040028)"><g><path d="M -0.53125 -1.890625 L -0.90625 -1.15625 L -0.5625 -0.96875 L -0.21875 -1.640625 L 0.078125 -1.5 L -0.265625 -0.828125 L 0.28125 -0.53125 L 0.078125 -0.15625 L -1.421875 -0.9375 L -0.84375 -2.046875 Z M -0.53125 -1.890625 "/></g></g></g><g fill="#fe84eb" fill-opacity="1"><g transform="translate(36.767428, 28.746798)"><g><path d="M -1.109375 -2.109375 L -0.171875 -1.8125 C 0.0351562 -1.75 0.179688 -1.628906 0.265625 -1.453125 C 0.347656 -1.285156 0.359375 -1.09375 0.296875 -0.875 C 0.222656 -0.644531 0.101562 -0.484375 -0.0625 -0.390625 C -0.226562 -0.296875 -0.414062 -0.28125 -0.625 -0.34375 L -1.5625 -0.640625 L -1.4375 -1.03125 L -0.5 -0.734375 C -0.382812 -0.703125 -0.285156 -0.710938 -0.203125 -0.765625 C -0.128906 -0.816406 -0.078125 -0.890625 -0.046875 -0.984375 C -0.015625 -1.085938 -0.0195312 -1.175781 -0.0625 -1.25 C -0.101562 -1.320312 -0.179688 -1.375 -0.296875 -1.40625 L -1.234375 -1.703125 Z M -1.109375 -2.109375 "/></g></g></g><g fill="#fe84eb" fill-opacity="1"><g transform="translate(37.523875, 25.937675)"><g><path d="M -1.515625 -1.359375 L -0.390625 -1.21875 C -0.210938 -1.1875 -0.0820312 -1.113281 0 -1 C 0.0820312 -0.894531 0.113281 -0.75 0.09375 -0.5625 C 0.0625 -0.332031 -0.0507812 -0.148438 -0.25 -0.015625 L -0.5 -0.25 C -0.363281 -0.351562 -0.289062 -0.460938 -0.28125 -0.578125 C -0.257812 -0.703125 -0.320312 -0.773438 -0.46875 -0.796875 L -1.234375 -0.890625 L -1.3125 -0.3125 L -1.65625 -0.359375 Z M -1.515625 -1.359375 "/></g></g></g><g fill="#fe84eb" fill-opacity="1"><g transform="translate(37.742018, 23.599251)"><g><path d="M 0 -0.59375 L 0 -0.171875 L -1.6875 -0.15625 L -1.6875 -0.578125 Z M 0 -0.59375 "/></g></g></g><g fill="#fe84eb" fill-opacity="1"><g transform="translate(37.671333, 21.788051)"><g><path d="M -0.078125 -0.59375 L -0.015625 -0.171875 L -1.6875 0.03125 L -1.75 -0.390625 Z M -0.078125 -0.59375 "/></g></g></g><g fill="#7a62f7" fill-opacity="1"><g transform="translate(8.719773, 30.562498)"><g><path d="M 10.402344 -14.710938 L 10.402344 -9.035156 L 4.855469 -9.035156 L 4.855469 -14.710938 L 1.679688 -14.710938 L 1.679688 0 L 4.855469 0 L 4.855469 -6.074219 L 10.402344 -6.074219 L 10.402344 0 L 13.574219 0 L 13.574219 -14.710938 Z M 10.402344 -14.710938 "/></g></g></g><g fill="#7a62f7" fill-opacity="1"><g transform="translate(22.755147, 30.562498)"><g><path d="M 10.464844 -11.746094 L 10.464844 -14.710938 L 1.679688 -14.710938 L 1.679688 0 L 4.855469 0 L 4.855469 -5.632812 L 9.917969 -5.632812 L 9.917969 -8.511719 L 4.855469 -8.511719 L 4.855469 -11.746094 Z M 10.464844 -11.746094 "/></g></g></g><g clip-path="url(#bba9a5c86d)"><g clip-path="url(#b59179c6bb)"><path fill="#7a62f7" d="M 30.398438 28.386719 L 31.980469 28.386719 L 31.980469 29.972656 L 30.398438 29.972656 Z M 30.398438 28.386719 " fill-opacity="1" fill-rule="nonzero"/></g></g></svg>